<?xml version="1.0" encoding="utf-8"?>
<svg viewBox="131.425 90.617 437.15 504.78" width="437.15" height="504.78" xmlns="http://www.w3.org/2000/svg">
  <g transform="matrix(1, 0, 0, 1, 0, 63)">
    <rect x="341.396" y="114.831" width="116.535" height="104.326" style="stroke: rgb(0, 0, 0); fill-opacity: 0.5;" transform="matrix(0.859259, -0.511541, 0.968289, 0.587344, -154.287445, 265.694763)"/>
    <path d="M 415.14 494.78 L 415.14 317.61 L 438.285 304.247 L 438.285 406.197 L 503.43 443.806 L 568.575 406.197 L 568.575 153.807 L 349.995 27.617 L 131.425 153.807 L 131.425 406.197 L 199.338 445.637 L 213.632 432.062 L 211.745 274.619 L 283.522 316.959 L 282.305 495.073 L 349.995 532.397 L 415.14 494.78 Z M 489.425 403.393 L 466.28 390.03 L 466.28 288.08 L 489.425 274.717 L 489.425 403.393 Z M 517.425 403.393 L 517.425 226.223 L 387.135 301.45 L 387.135 478.62 L 363.99 491.975 L 363.99 288.085 L 540.56 186.135 L 540.56 390.025 L 517.425 403.393 Z M 526.57 161.893 L 349.999 263.833 L 173.429 161.893 L 349.999 59.943 L 526.57 161.893 Z M 159.419 186.139 L 335.989 288.089 L 335.989 491.979 L 312.967 478.853 L 312.355 301.04 L 183.591 226.604 L 183.367 405.56 L 159.419 390.029 L 159.419 186.139 Z" style=""/>
    <path d="M 284.855 47.677 L 284.855 198.127 L 415.145 273.354 L 415.145 122.904 L 284.855 47.677 Z M 387.145 165.787 L 364 152.424 L 364 125.701 L 387.145 139.064 L 387.145 165.787 Z M 336 109.537 L 336 136.26 L 312.855 122.897 L 312.855 96.174 L 336 109.537 Z M 312.859 155.232 L 336.004 168.595 L 336.004 195.318 L 312.859 181.955 L 312.859 155.232 Z M 364 211.482 L 364 184.759 L 387.145 198.122 L 387.145 224.845 L 364 211.482 Z" transform="matrix(-0.5, 0.866025, -0.866025, -0.5, 664.010559, -62.335573)" style=""/>
  </g>
  <rect style="stroke: rgb(0, 0, 0); stroke-width: 0px;" x="232.443" y="341.816" width="27.551" height="123.976"/>
  <rect style="stroke: rgb(0, 0, 0); stroke-width: 0px;" x="197.02" y="208.515" width="27.551" height="73.708" transform="matrix(0.585938, 0.810356, -0.810356, 0.585938, 296.572235, 161.59433)"/>
</svg>