<?xml version="1.0" encoding="utf-8"?>
<svg viewBox="0 0 24 24" fill="none" stroke="black" stroke-width="1.8" xmlns="http://www.w3.org/2000/svg">
    <path stroke-linecap="round" stroke-linejoin="round" d="M3.055 11H5a2 2 0 012 2v1a2 2 0 002 2 2 2 0 012 2v2.945M8 3.935V5.5A2.5 2.5 0 0010.5 8h.5a2 2 0 012 2 2 2 0 104 0 2 2 0 012-2h1.064M15 20.488V18a2 2 0 012-2h3.064M21 12a9 9 0 11-18 0 9 9 0 0118 0z" style="paint-order: fill; fill-rule: nonzero; fill: rgba(0, 0, 0, 0); stroke: rgb(255, 255, 255); stroke-width: 1.4px;" transform="matrix(1, 0, 0, 1, 1.7763568394002505e-15, 0)"/>
</svg>