<?xml version="1.0" encoding="utf-8"?>
<svg viewBox="0 0 24 24" fill="none" xmlns="http://www.w3.org/2000/svg">
    <path fill-rule="evenodd" clip-rule="evenodd" d="M 3.345 1.684 C 3.443 1.222 4.496 1.215 4.968 1.215 L 7.365 1.483 C 10.335 2.053 13.602 2.943 16.298 4.672 L 16.814 3.772 C 17.207 3.401 17.825 3.41 18.207 3.793 L 20.207 5.793 C 20.59 6.175 20.599 6.793 20.228 7.186 L 19.407 7.594 C 21.305 10.158 22.319 13.038 22.973 16.5 C 22.985 16.476 23 18.279 22.946 18.387 C 22.946 18.859 22.643 19.966 22.181 20.064 C 21.719 20.162 21.198 19.601 20.952 19.197 C 18.857 15.752 17.888 14.144 15.919 11.759 L 5.789 22.555 C 4.823 23.585 3.196 23.611 2.198 22.612 L 1.388 21.802 C 0.389 20.804 0.415 19.177 1.445 18.211 L 12.241 8.081 C 9.828 6.121 7.061 4.285 3.782 2.699 C 3.356 2.493 3.247 2.146 3.345 1.684 Z M 13.123 8.85 L 2.383 19.213 C 2.177 19.406 1.876 19.973 2.022 20.254 L 3.37 21.897 C 3.57 22.097 4.513 22.011 4.706 21.805 L 15.176 10.877 C 14.901 10.589 13.41 9.125 13.123 8.85 Z M 5.363 2.194 C 7.649 3.467 11.538 5.352 13.328 6.954 C 14.137 7.677 15.571 9.057 16.294 9.866 C 17.896 11.657 20.479 15.787 21.752 18.073 C 21.564 15.263 19.641 10.217 17.857 8.063 C 17.279 7.365 16.635 6.721 15.937 6.143 C 13.783 4.359 8.173 2.382 5.363 2.194 Z" style="fill: rgb(255, 255, 255);" transform="matrix(1, 0, 0, 1, 1.7763568394002505e-15, 4.440892098500626e-16)"/>
</svg>