<?xml version="1.0" encoding="utf-8"?>
<svg viewBox="115.628 33.6 468.759 492.809" width="468.759" height="492.809" xmlns="http://www.w3.org/2000/svg">
  <path d="m406.55 276.08-41.508-13.777v-36.688c0-8.3086-6.7422-15.043-15.043-15.043-8.3086 0-15.043 6.7266-15.043 15.043v47.527c0 6.4922 4.1445 12.219 10.281 14.273l51.816 17.215c1.5742 0.52734 3.168 0.76172 4.7266 0.76172 6.3164 0 12.191-3.9922 14.273-10.309 2.6289-7.8711-1.6289-16.387-9.5039-19.004z"/>
  <path d="m350 161.35c-65.43 0-118.65 53.223-118.65 118.64s53.223 118.64 118.65 118.64c65.414 0 118.64-53.223 118.64-118.64 0.003907-65.418-53.227-118.64-118.64-118.64zm0 207.2c-48.848 0-88.574-39.742-88.574-88.562s39.727-88.562 88.574-88.562c48.82 0 88.562 39.742 88.562 88.562 0.003906 48.82-39.746 88.562-88.562 88.562z"/>
  <path d="m561.76 153.03c-6.8164-14.656-24.293-21-38.965-14.219l-36.141 16.832c-23.117-26.086-52.406-44.766-85.008-53.754v-38.945c0-16.184-13.16-29.344-29.328-29.344h-46.395c-16.172 0-29.316 13.16-29.316 29.344l0.37891 38.07c-26.48 7.3398-50.461 20.473-73.035 40.008l-35.293-20.738c-13.867-8.0742-31.824-3.4961-40.035 10.336l-24.438 41.184c-8.1914 13.805-3.6719 31.812 10.121 40.098l34.559 20.328c-3.8906 15.098-5.875 30.695-5.875 46.414 0 12.512 1.25 24.965 4.1562 36.305l-35.98 19.152c-14.262 7.5781-19.695 25.379-12.117 39.625l22.074 41.562c7.5938 14.273 25.363 19.711 39.652 12.129l35.172-19.152c19.711 20.066 44.062 35.57 70.027 44.152l-2.1445 40.684c-0.41016 7.8398 2.2617 15.332 7.5195 21.152 5.2305 5.8203 12.426 9.2227 20.238 9.6328l47.012 2.4688c0.51562 0.027343 1.043 0.054687 1.5742 0.054687 7.2578 0 14.156-2.6445 19.578-7.5469 5.8281-5.2305 9.25-12.426 9.6484-20.238l1.6758-39.977c27.227-6.4922 53.078-19.414 73.875-37.336l33.809 22.793c6.4922 4.3438 14.336 5.9023 21.969 4.4648 7.6953-1.5 14.348-5.9023 18.727-12.398l26.332-39.008c9.0156-13.422 5.4648-31.664-7.9297-40.684l-33.254-22.438c5.6094-17.887 8.4609-36.512 8.4609-55.402 0-9.25-0.67578-18.473-2.4961-26.789l36.922-17.215c14.629-6.8711 20.973-24.32 14.156-38.949zm-43.914 71.559c-11.84 5.5508-18.492 18.004-16.535 31.078 1.1133 7.4922 1.6758 15.16 1.6758 22.973 0 15.949-2.4062 31.664-7.1953 46.73-3.9219 12.398 0.82422 26.086 11.543 33.281l33.516 21.707-25.277 38.801-33.762-22.793c-10.691-7.2227-25.172-6.5195-35.203 1.793-18.109 14.98-39.727 25.789-62.492 31.227-12.629 2.9961-21.914 14.066-22.602 26.965l-1.3398 39.977-46.297-1.6445 2.1289-40.684c0.6875-13.043-7.1797-24.762-19.633-29.227-22.059-7.7852-42.441-20.766-58.953-37.57-5.7305-5.875-13.305-8.9336-21-8.9336-4.6719 0-9.3672 1.1133-13.746 3.4375l-34.984 19.477-22.398-40.531 35.996-19.152c11.531-6.1719 17.523-18.945 14.891-31.871-2.0703-10.074-3.1133-20.5-3.1133-30.992 0-13.16 1.6562-26.258 4.9336-38.891 3.2891-12.777-2.0273-25.879-13.25-32.633l-34.703-19.977 23.406-40.918 44.352 26.059c5.6211 3.375 13.938 2.4688 18.68-2.0273 21.297-20.211 43.727-33.371 68.543-40.27 12.746-3.5234 21.648-15.16 21.648-28.285l-0.75-38.02 45.645-0.73438v38.949c0 12.898 8.6953 24.465 21.152 28.113 29.812 8.7266 56.043 26.348 76.074 51.082 0.20703 0.41016 0.44141 0.82422 0.67578 1.2031 0.91406 1.4375 2.1445 2.8789 3.4648 3.9375 4.625 3.7031 11.277 4.1445 16.555 1.5 0.60547-0.32422 45.012-22.004 45.012-22.004l20.238 41.652z"/>
</svg>