<?xml version="1.0" encoding="utf-8"?>
<svg viewBox="120.05 83.971 459.9 518.057" width="459.9" height="518.057" xmlns="http://www.w3.org/2000/svg">
  <g>
    <rect x="328.955" y="293.888" width="119" height="93.174" style="stroke: rgb(0, 0, 0); fill-opacity: 0.5;" transform="matrix(0.029592, 0.999562, -1.018722, -0.61761, 736.845398, 135.236862)"/>
    <rect x="328.955" y="293.888" width="119" height="93.174" style="stroke: rgb(0, 0, 0); fill-opacity: 0.5;" transform="matrix(-0.029592, 0.999562, 1.018722, -0.61761, -35.790323, 130.888996)"/>
    <rect style="stroke: rgb(0, 0, 0); fill-opacity: 0.5; fill: rgb(4, 255, 0);" transform="matrix(0.875965, 0.482375, -1.031877, 0.573366, 398.697876, -85.426262)" x="412.937" y="396.083" width="128.754" height="111.881"/>
    <path d="M 558.95 198.1 L 371 89.6 C 364.613 85.912 357.371 83.971 350 83.971 C 342.629 83.971 335.387 85.912 329 89.6 L 141.05 198.1 C 134.659 201.788 129.355 207.092 125.671 213.483 C 121.984 219.874 120.046 227.12 120.05 234.499 L 120.05 300.999 C 120.05 308.73 126.316 314.999 134.05 314.999 C 141.78 314.999 148.05 308.73 148.05 300.999 L 148.05 242.62 L 227.288 288.331 L 227.288 288.327 C 227.218 289.612 227.218 290.897 227.288 292.179 L 227.288 381.64 L 141.05 332.078 C 136.718 329.582 131.386 329.578 127.054 332.078 C 122.726 334.574 120.054 339.191 120.05 344.191 L 120.05 451.501 C 120.046 458.88 121.984 466.126 125.671 472.517 C 129.355 478.907 134.659 484.212 141.05 487.9 L 329 596.4 C 341.996 603.904 358.004 603.904 371 596.4 L 558.95 487.9 C 565.341 484.212 570.645 478.907 574.329 472.517 C 578.017 466.126 579.954 458.88 579.95 451.501 L 579.95 234.501 C 579.954 227.122 578.017 219.876 574.329 213.485 C 570.646 207.094 565.341 201.79 558.95 198.102 L 558.95 198.1 Z M 227.01 505.19 L 155.049 463.608 C 150.721 461.112 148.053 456.495 148.049 451.499 L 148.049 368.409 L 227.01 413.979 L 227.01 505.19 Z M 343 113.89 C 347.332 111.39 352.668 111.39 357 113.89 L 428.961 155.398 L 350 200.968 L 271.039 155.398 L 343 113.89 Z M 241.29 264.04 L 162.052 218.329 L 243.04 171.567 L 322.001 217.001 L 244.513 261.872 L 241.29 264.04 Z M 336.001 241.431 L 336.001 335.091 L 255.013 381.712 L 255.013 292.181 C 255.025 289.697 256.357 287.404 258.513 286.161 L 336.001 241.431 Z M 336.001 568.051 L 255.013 521.36 L 255.013 430.36 L 332.501 474.88 C 333.618 475.56 334.786 476.146 336.001 476.63 L 336.001 568.051 Z M 346.501 450.661 L 269.079 406.001 L 350.001 359.31 L 430.923 406.001 L 353.501 450.661 C 351.337 451.911 348.665 451.911 346.501 450.661 Z M 444.989 521.36 L 364.001 568.051 L 364.001 476.629 C 365.216 476.145 366.384 475.559 367.501 474.879 L 444.989 430.149 L 444.989 521.36 Z M 444.989 381.36 L 364.001 335.09 L 364.001 241.43 L 441.489 286.16 C 443.645 287.402 444.977 289.695 444.989 292.179 L 444.989 381.36 Z M 455.489 261.52 L 378.001 217 L 456.962 171.43 L 537.95 218.192 L 458.712 264.04 L 455.489 261.52 Z M 551.95 451.5 C 551.946 456.496 549.278 461.113 544.95 463.609 L 472.989 505.191 L 472.989 414.191 L 530.739 380.871 C 537.45 377.004 539.751 368.433 535.887 361.726 C 532.02 355.015 523.449 352.714 516.739 356.578 L 472.989 381.848 L 472.989 292.18 C 473.06 290.898 473.06 289.613 472.989 288.328 L 552.227 242.617 L 551.95 451.5 Z" style=""/>
  </g>
</svg>