<?xml version="1.0" encoding="utf-8"?>
<!DOCTYPE svg PUBLIC "-//W3C//DTD SVG 1.1//EN" "http://www.w3.org/Graphics/SVG/1.1/DTD/svg11.dtd">
<svg version="1.1" xmlns="http://www.w3.org/2000/svg" x="0px" y="0px" viewBox="-150 0 1300 1000"
     enable-background="new 0 0 1000 1000" xml:space="preserve">
<g><path d="M990,918.9c0,16.7-13.7,30.2-30.6,30.2c-16.9,0-30.6-13.6-30.6-30.2c0-143.5-101.5-344.8-237.4-375.7v-1.5c-18.1-5.5-31.6-21.6-31.6-41.4c0-21.5,16-38.6,36.6-42.4c64.4-28.2,109.8-91,109.8-165.1c0-100.2-82.2-181.4-183.8-181.4V111c-16-1-28.7-13.8-28.7-29.8c0-16,12.7-28.8,28.7-29.9v-0.4c0.5,0,0.9,0.1,1.3,0.1c0.2,0,0.4-0.1,0.6-0.1c0.7,0,1.3,0.4,1.9,0.4c133.5,2,241.2,109.2,241.2,241.5c0,87.1-47,162.8-116.9,205.4C890.1,549.7,990,681.4,990,837.2l0,0V918.9L990,918.9z M714.4,949.1c16.9,0,30.6-13.6,30.6-30.2c0-155.8-99.9-369.2-239.4-420.6l0,0c69.9-42.6,116.9-118.3,116.9-205.4c0-133.6-109.7-241.9-245-241.9c-135.4,0-245,108.3-245,241.9c0,87.1,47,162.8,116.9,205.4C109.9,549.7,10,763.1,10,918.9c0,16.7,13.7,30.2,30.6,30.2C40.6,949.1,697.4,949.1,714.4,949.1z"/></g>
</svg>